<?xml version="1.0" encoding="UTF-8" standalone="no"?>
<!DOCTYPE svg PUBLIC "-//W3C//DTD SVG 1.1//EN"
 "http://www.w3.org/Graphics/SVG/1.1/DTD/svg11.dtd">
<!-- Generated by graphviz version 2.40.1 (20161225.0304)
 -->
<!-- Title: models_diagram Pages: 1 -->
<svg width="351pt" height="420pt"
 viewBox="0.00 0.00 351.12 420.09" xmlns="http://www.w3.org/2000/svg" xmlns:xlink="http://www.w3.org/1999/xlink">
<g id="graph0" class="graph" transform="scale(1 1) rotate(0) translate(36 384.0943)">
<title>models_diagram</title>
<polygon fill="#ffffff" stroke="transparent" points="-36,36 -36,-384.0943 315.1169,-384.0943 315.1169,36 -36,36"/>
<!-- Auction -->
<g id="node1" class="node">
<title>Auction</title>
<polygon fill="#add8e6" stroke="transparent" points="0,-154 0,-176 108,-176 108,-154 0,-154"/>
<polygon fill="none" stroke="#000000" points="0,-154 0,-176 108,-176 108,-154 0,-154"/>
<text text-anchor="start" x="37.892" y="-163" font-family="Times,serif" font-weight="bold" font-size="10.00" fill="#000000">Auction</text>
<polygon fill="none" stroke="#000000" points="0,-132 0,-154 108,-154 108,-132 0,-132"/>
<text text-anchor="start" x="5" y="-141" font-family="Times,serif" text-decoration="underline" font-size="10.00" fill="#000000">id</text>
<text text-anchor="start" x="12.779" y="-141" font-family="Times,serif" font-size="10.00" fill="#000000">: NUMBER</text>
<polygon fill="none" stroke="#000000" points="0,-110 0,-132 108,-132 108,-110 0,-110"/>
<text text-anchor="start" x="5" y="-118" font-family="Times,serif" font-size="10.00" fill="#000000">name: STRING</text>
<polygon fill="none" stroke="#000000" points="0,-88 0,-110 108,-110 108,-88 0,-88"/>
<text text-anchor="start" x="5" y="-96" font-family="Times,serif" font-size="10.00" fill="#000000">description: STRING</text>
<polygon fill="none" stroke="#000000" points="0,-66 0,-88 108,-88 108,-66 0,-66"/>
<text text-anchor="start" x="5" y="-74" font-family="Times,serif" font-size="10.00" fill="#000000">startDateTime: DATE</text>
<polygon fill="none" stroke="#000000" points="0,-44 0,-66 108,-66 108,-44 0,-44"/>
<text text-anchor="start" x="5" y="-52" font-family="Times,serif" font-size="10.00" fill="#000000">endDateTime: DATE</text>
<polygon fill="none" stroke="#000000" points="0,-22 0,-44 108,-44 108,-22 0,-22"/>
<text text-anchor="start" x="4.976" y="-30" font-family="Times,serif" font-size="10.00" fill="#000000">maxAmount: NUMBER</text>
<polygon fill="none" stroke="#000000" points="0,0 0,-22 108,-22 108,0 0,0"/>
<text text-anchor="start" x="5" y="-9" font-family="Times,serif" font-style="italic" text-decoration="underline" font-size="10.00" fill="#000000">userId</text>
<text text-anchor="start" x="29.986" y="-9" font-family="Times,serif" font-size="10.00" fill="#000000">: NUMBER</text>
</g>
<!-- User -->
<g id="node3" class="node">
<title>User</title>
<polygon fill="#add8e6" stroke="transparent" points="10,-326.0943 10,-348.0943 99,-348.0943 99,-326.0943 10,-326.0943"/>
<polygon fill="none" stroke="#000000" points="10,-326.0943 10,-348.0943 99,-348.0943 99,-326.0943 10,-326.0943"/>
<text text-anchor="start" x="45.062" y="-335.0943" font-family="Times,serif" font-weight="bold" font-size="10.00" fill="#000000">User</text>
<polygon fill="none" stroke="#000000" points="10,-304.0943 10,-326.0943 99,-326.0943 99,-304.0943 10,-304.0943"/>
<text text-anchor="start" x="15" y="-313.0943" font-family="Times,serif" text-decoration="underline" font-size="10.00" fill="#000000">id</text>
<text text-anchor="start" x="22.779" y="-313.0943" font-family="Times,serif" font-size="10.00" fill="#000000">: NUMBER</text>
<polygon fill="none" stroke="#000000" points="10,-282.0943 10,-304.0943 99,-304.0943 99,-282.0943 10,-282.0943"/>
<text text-anchor="start" x="15" y="-290.0943" font-family="Times,serif" font-size="10.00" fill="#000000">login: STRING</text>
<polygon fill="none" stroke="#000000" points="10,-260.0943 10,-282.0943 99,-282.0943 99,-260.0943 10,-260.0943"/>
<text text-anchor="start" x="14.926" y="-268.0943" font-family="Times,serif" font-size="10.00" fill="#000000">password: STRING</text>
<polygon fill="none" stroke="#000000" points="10,-238.0943 10,-260.0943 99,-260.0943 99,-238.0943 10,-238.0943"/>
<text text-anchor="start" x="14.927" y="-246.0943" font-family="Times,serif" font-size="10.00" fill="#000000">fullName: STRING</text>
</g>
<!-- Auction&#45;&gt;User -->
<g id="edge1" class="edge">
<title>Auction&#45;&gt;User</title>
<path fill="none" stroke="#000000" stroke-width=".75" d="M54,-182.5746C54,-201.5162 54,-220.8228 54,-237.8883"/>
<polygon fill="#000000" stroke="#000000" stroke-width=".75" points="54.0001,-182.1687 56.7,-176.1687 54,-179.1687 54,-176.1687 54,-176.1687 54,-176.1687 54,-179.1687 51.3,-176.1688 54.0001,-182.1687 54.0001,-182.1687"/>
</g>
<!-- Offer -->
<g id="node2" class="node">
<title>Offer</title>
<polygon fill="#add8e6" stroke="transparent" points="184.6169,-234.5472 184.6169,-256.5472 279.6169,-256.5472 279.6169,-234.5472 184.6169,-234.5472"/>
<polygon fill="none" stroke="#000000" points="184.6169,-234.5472 184.6169,-256.5472 279.6169,-256.5472 279.6169,-234.5472 184.6169,-234.5472"/>
<text text-anchor="start" x="221.2944" y="-243.5472" font-family="Times,serif" font-weight="bold" font-size="10.00" fill="#000000">Offer</text>
<polygon fill="none" stroke="#000000" points="184.6169,-212.5472 184.6169,-234.5472 279.6169,-234.5472 279.6169,-212.5472 184.6169,-212.5472"/>
<text text-anchor="start" x="189.6169" y="-221.5472" font-family="Times,serif" text-decoration="underline" font-size="10.00" fill="#000000">id</text>
<text text-anchor="start" x="197.3959" y="-221.5472" font-family="Times,serif" font-size="10.00" fill="#000000">: NUMBER</text>
<polygon fill="none" stroke="#000000" points="184.6169,-190.5472 184.6169,-212.5472 279.6169,-212.5472 279.6169,-190.5472 184.6169,-190.5472"/>
<text text-anchor="start" x="189.6169" y="-198.5472" font-family="Times,serif" font-size="10.00" fill="#000000">amount: NUMBER</text>
<polygon fill="none" stroke="#000000" points="184.6169,-168.5472 184.6169,-190.5472 279.6169,-190.5472 279.6169,-168.5472 184.6169,-168.5472"/>
<text text-anchor="start" x="189.6169" y="-176.5472" font-family="Times,serif" font-size="10.00" fill="#000000">dateTime: DATE</text>
<polygon fill="none" stroke="#000000" points="184.6169,-146.5472 184.6169,-168.5472 279.6169,-168.5472 279.6169,-146.5472 184.6169,-146.5472"/>
<text text-anchor="start" x="189.2079" y="-155.5472" font-family="Times,serif" font-style="italic" text-decoration="underline" font-size="10.00" fill="#000000">auctionId</text>
<text text-anchor="start" x="226.9729" y="-155.5472" font-family="Times,serif" font-size="10.00" fill="#000000">: NUMBER</text>
<polygon fill="none" stroke="#000000" points="184.6169,-124.5472 184.6169,-146.5472 279.6169,-146.5472 279.6169,-124.5472 184.6169,-124.5472"/>
<text text-anchor="start" x="189.6169" y="-133.5472" font-family="Times,serif" font-style="italic" text-decoration="underline" font-size="10.00" fill="#000000">userId</text>
<text text-anchor="start" x="214.6029" y="-133.5472" font-family="Times,serif" font-size="10.00" fill="#000000">: NUMBER</text>
</g>
<!-- Offer&#45;&gt;Auction -->
<g id="edge2" class="edge">
<title>Offer&#45;&gt;Auction</title>
<path fill="none" stroke="#000000" stroke-width=".75" d="M178.7247,-160.0098C156.405,-147.1236 130.4454,-132.1358 108.0068,-119.1808"/>
<polygon fill="#000000" stroke="#000000" stroke-width=".75" points="178.8227,-160.0664 182.6688,-165.4047 181.4208,-161.5664 184.0188,-163.0664 184.0188,-163.0664 184.0188,-163.0664 181.4208,-161.5664 185.3689,-160.7281 178.8227,-160.0664 178.8227,-160.0664"/>
</g>
<!-- Offer&#45;&gt;User -->
<g id="edge3" class="edge">
<title>Offer&#45;&gt;User</title>
<path fill="none" stroke="#000000" stroke-width=".75" d="M178.6578,-221.1232C153.1799,-235.8328 122.9714,-253.2737 98.6733,-267.3022"/>
<polygon fill="#000000" stroke="#000000" stroke-width=".75" points="178.8227,-221.028 185.3689,-220.3662 181.4208,-219.528 184.0188,-218.0279 184.0188,-218.0279 184.0188,-218.0279 181.4208,-219.528 182.6688,-215.6897 178.8227,-221.028 178.8227,-221.028"/>
</g>
</g>
</svg>
